<svg xmlns="http://www.w3.org/2000/svg" viewBox="0 0 241.28 187.98"><defs><style>.cls-1{fill:#4d4d4d;}.cls-2{fill:none;stroke:#4d4d4d;stroke-miterlimit:10;stroke-width:6px;}</style></defs><title>Asset 2</title><g id="Layer_2" data-name="Layer 2"><g id="Layer_1-2" data-name="Layer 1"><path class="cls-1" d="M77.71,48.14H68V41H96.45v7.17H86.82V101H77.71Z"/><path class="cls-1" d="M102.6,41h9.11V101H102.6Z"/><path class="cls-1" d="M122,41h9.11V93.85h12.41V101H122Z"/><path class="cls-1" d="M149.26,41h22.25v7.17H158.36v18h10.16v7.17H158.36V93.85h13.5V101h-22.6Z"/><path class="cls-1" d="M14.59,187.94a22.3,22.3,0,0,1-3-.22,12.31,12.31,0,0,1-3.27-1,12.14,12.14,0,0,1-3.13-2.09,12.47,12.47,0,0,1-2.64-3.57,21.62,21.62,0,0,1-1.82-5.47A37.76,37.76,0,0,1,0,167.87V146.6a36.75,36.75,0,0,1,.7-7.75,21.06,21.06,0,0,1,1.87-5.41,11.59,11.59,0,0,1,2.67-3.5,12,12,0,0,1,3.13-2,12.29,12.29,0,0,1,3.21-.9,23,23,0,0,1,3-.21,15.63,15.63,0,0,1,6,1,9.91,9.91,0,0,1,3.87,2.74,10.36,10.36,0,0,1,2.07,4.06,19.11,19.11,0,0,1,.62,4.92,30.21,30.21,0,0,1-.2,3.57c-.13,1.09-.32,2.29-.58,3.6H19v-3.06a19.13,19.13,0,0,0-1.09-7.41c-.73-1.64-1.79-2.47-3.2-2.47a4.71,4.71,0,0,0-2.21.5A3.85,3.85,0,0,0,10.86,136a10.3,10.3,0,0,0-1,3.11,28.1,28.1,0,0,0-.34,4.81v27.43A33.47,33.47,0,0,0,9.83,176a9,9,0,0,0,.86,3,3.61,3.61,0,0,0,1.56,1.6,5.25,5.25,0,0,0,2.34.47,3.72,3.72,0,0,0,1.69-.4,3.86,3.86,0,0,0,1.42-1.27,7,7,0,0,0,1-2.18,11.81,11.81,0,0,0,.36-3.11v-5.87h8.34v5.56q0,7.25-3.31,10.68T14.59,187.94Z"/><path class="cls-1" d="M34.56,127.37h9.1v52.88H56.07v7.17H34.56Z"/><path class="cls-1" d="M68.45,127.37H78.93l11.11,60H80.82l-1.65-10.76h-11l-1.58,10.76H57.38Zm9.67,42.43L73.9,139.89h-.39L69.26,169.8Z"/><path class="cls-1" d="M93.52,175.25a26.16,26.16,0,0,1,.22-3.56c.16-1.09.38-2.27.69-3.54h7.07v2.92a28.56,28.56,0,0,0,.29,4.29,10.07,10.07,0,0,0,1,3.15,4.75,4.75,0,0,0,1.83,1.93,5.59,5.59,0,0,0,2.79.65,5.31,5.31,0,0,0,4-1.42,5.8,5.8,0,0,0,1.37-4.17,15.72,15.72,0,0,0-.2-2.58,10.53,10.53,0,0,0-.67-2.34,15.26,15.26,0,0,0-1.28-2.45,32.89,32.89,0,0,0-2.07-2.86L99,154a28.39,28.39,0,0,1-3.91-6.52,18.1,18.1,0,0,1-1.37-7,15.66,15.66,0,0,1,.93-5.49,12.29,12.29,0,0,1,2.69-4.3,11.85,11.85,0,0,1,4.34-2.81,16.11,16.11,0,0,1,5.86-1,17,17,0,0,1,6.63,1.13,11.32,11.32,0,0,1,4.23,2.95,10.62,10.62,0,0,1,2.23,4.1,16.19,16.19,0,0,1,.65,4.55,20.81,20.81,0,0,1-.29,3.57q-.3,1.63-.69,3.6h-7v-2.85a15.85,15.85,0,0,0-1.37-7.33,4.69,4.69,0,0,0-4.47-2.54,4.85,4.85,0,0,0-3.83,1.42,5.54,5.54,0,0,0-1.26,3.81,12.25,12.25,0,0,0,.19,2.29,8.78,8.78,0,0,0,.56,1.88,11.75,11.75,0,0,0,.9,1.67c.35.54.75,1.1,1.19,1.69l10.58,12.79a36.16,36.16,0,0,1,4.43,7.23,17.63,17.63,0,0,1,1.55,7.33,15.68,15.68,0,0,1-1,5.76,11.93,11.93,0,0,1-2.87,4.36,12.53,12.53,0,0,1-4.5,2.76,17,17,0,0,1-5.94,1,18,18,0,0,1-6.76-1.09A11.32,11.32,0,0,1,96.42,184a10.26,10.26,0,0,1-2.25-4.08A16.74,16.74,0,0,1,93.52,175.25Z"/><path class="cls-1" d="M127.12,175.25a26.08,26.08,0,0,1,.23-3.56c.16-1.09.38-2.27.69-3.54h7.07v2.92a28.56,28.56,0,0,0,.29,4.29,10.07,10.07,0,0,0,1,3.15,4.75,4.75,0,0,0,1.83,1.93,5.59,5.59,0,0,0,2.79.65,5.27,5.27,0,0,0,4-1.42,5.76,5.76,0,0,0,1.38-4.17,15.72,15.72,0,0,0-.2-2.58,10.53,10.53,0,0,0-.67-2.34,15.26,15.26,0,0,0-1.28-2.45,32.89,32.89,0,0,0-2.07-2.86L132.64,154a28.69,28.69,0,0,1-3.9-6.52,18.1,18.1,0,0,1-1.37-7,15.66,15.66,0,0,1,.93-5.49,12.29,12.29,0,0,1,2.69-4.3,11.85,11.85,0,0,1,4.34-2.81,16.11,16.11,0,0,1,5.86-1,17,17,0,0,1,6.62,1.13,11.28,11.28,0,0,1,4.24,2.95,10.62,10.62,0,0,1,2.23,4.1,16.19,16.19,0,0,1,.65,4.55,19.81,19.81,0,0,1-.3,3.57c-.19,1.09-.42,2.29-.68,3.6h-7v-2.85a15.85,15.85,0,0,0-1.37-7.33,4.7,4.7,0,0,0-4.47-2.54,4.85,4.85,0,0,0-3.83,1.42,5.55,5.55,0,0,0-1.27,3.81,12.2,12.2,0,0,0,.2,2.29,8.78,8.78,0,0,0,.56,1.88,11.75,11.75,0,0,0,.9,1.67c.35.54.75,1.1,1.19,1.69l10.58,12.79a36.16,36.16,0,0,1,4.43,7.23,17.63,17.63,0,0,1,1.55,7.33,15.68,15.68,0,0,1-1,5.76,11.93,11.93,0,0,1-2.87,4.36A12.53,12.53,0,0,1,147,187a17,17,0,0,1-5.94,1,18.11,18.11,0,0,1-6.77-1.09A11.36,11.36,0,0,1,130,184a10.26,10.26,0,0,1-2.25-4.08A16.75,16.75,0,0,1,127.12,175.25Z"/><path class="cls-1" d="M163.05,127.37h9.11v60h-9.11Z"/><path class="cls-1" d="M195.36,187.94a22.42,22.42,0,0,1-3-.22,12.31,12.31,0,0,1-3.27-1,12.14,12.14,0,0,1-3.13-2.09,12.45,12.45,0,0,1-2.63-3.57,22,22,0,0,1-1.83-5.47,37.76,37.76,0,0,1-.69-7.75V146.6a36.69,36.69,0,0,1,.71-7.75,21.46,21.46,0,0,1,1.86-5.41,11.59,11.59,0,0,1,2.67-3.5,12,12,0,0,1,3.13-2,12.25,12.25,0,0,1,3.22-.9,22.76,22.76,0,0,1,3-.21,15.57,15.57,0,0,1,6,1,9.77,9.77,0,0,1,3.87,2.74,10.36,10.36,0,0,1,2.07,4.06,19.11,19.11,0,0,1,.62,4.92,32.63,32.63,0,0,1-.19,3.57c-.13,1.09-.33,2.29-.58,3.6h-7.39v-3.06a19.13,19.13,0,0,0-1.09-7.41c-.72-1.64-1.79-2.47-3.2-2.47a4.71,4.71,0,0,0-2.21.5,3.83,3.83,0,0,0-1.58,1.67,10,10,0,0,0-1,3.11,29.29,29.29,0,0,0-.33,4.81v27.43a33.66,33.66,0,0,0,.26,4.67,9.28,9.28,0,0,0,.86,3,3.58,3.58,0,0,0,1.57,1.6,5.18,5.18,0,0,0,2.33.47,3.72,3.72,0,0,0,1.69-.4,3.86,3.86,0,0,0,1.42-1.27,7,7,0,0,0,1-2.18,11.38,11.38,0,0,0,.37-3.11v-5.87h8.33v5.56q0,7.25-3.3,10.68T195.36,187.94Z"/><path class="cls-1" d="M213,175.25a26.08,26.08,0,0,1,.23-3.56,35.32,35.32,0,0,1,.69-3.54H221v2.92a27.21,27.21,0,0,0,.3,4.29,10.07,10.07,0,0,0,1,3.15,4.66,4.66,0,0,0,1.82,1.93,5.66,5.66,0,0,0,2.8.65,5.29,5.29,0,0,0,4-1.42,5.76,5.76,0,0,0,1.37-4.17,15.77,15.77,0,0,0-.19-2.58,10.53,10.53,0,0,0-.67-2.34,16.12,16.12,0,0,0-1.28-2.45,31.18,31.18,0,0,0-2.08-2.86L218.53,154a28,28,0,0,1-3.9-6.52,17.92,17.92,0,0,1-1.37-7,15.66,15.66,0,0,1,.93-5.49,12.29,12.29,0,0,1,2.69-4.3,11.85,11.85,0,0,1,4.34-2.81,16,16,0,0,1,5.85-1A17,17,0,0,1,233.7,128a11.36,11.36,0,0,1,4.24,2.95,10.76,10.76,0,0,1,2.23,4.1,16.57,16.57,0,0,1,.65,4.55,19.81,19.81,0,0,1-.3,3.57c-.2,1.09-.43,2.29-.68,3.6h-7v-2.85a15.72,15.72,0,0,0-1.37-7.33A4.67,4.67,0,0,0,227,134a4.85,4.85,0,0,0-3.83,1.42,5.5,5.5,0,0,0-1.27,3.81,13.16,13.16,0,0,0,.19,2.29,8.79,8.79,0,0,0,.57,1.88,10.76,10.76,0,0,0,.89,1.67c.36.54.75,1.1,1.2,1.69l10.58,12.79a36.63,36.63,0,0,1,4.43,7.23,17.79,17.79,0,0,1,1.55,7.33,15.89,15.89,0,0,1-1,5.76,12.06,12.06,0,0,1-2.87,4.36,12.53,12.53,0,0,1-4.5,2.76,17.05,17.05,0,0,1-5.94,1,18.07,18.07,0,0,1-6.77-1.09,11.48,11.48,0,0,1-4.29-2.88,10.51,10.51,0,0,1-2.25-4.08A17.11,17.11,0,0,1,213,175.25Z"/><polyline class="cls-2" points="163.18 21.93 206.1 21.93 206.1 64.85"/><polyline class="cls-2" points="182.11 3 225.03 3 225.03 45.92"/></g></g></svg>