<svg xmlns="http://www.w3.org/2000/svg" xmlns:xlink="http://www.w3.org/1999/xlink" viewBox="0 0 273.39 86.2"><defs><style>.cls-1,.cls-3,.cls-5{fill:none;}.cls-2{fill:#fff;}.cls-3{stroke:#b3b3b3;}.cls-3,.cls-5{stroke-miterlimit:10;stroke-width:4px;}.cls-4{clip-path:url(#clip-path);}.cls-5{stroke:#fff;}</style><clipPath id="clip-path" transform="translate(-11.49 -12.64)"><polygon class="cls-1" points="0 0 238.41 0 238.41 55.74 291.67 55.74 291.67 115 0 115 0 0"/></clipPath></defs><title>Asset 6</title><g id="Layer_2" data-name="Layer 2"><g id="Layer_1-2" data-name="Layer 1"><path class="cls-2" d="M46.36,70.26V43.63h-4.9V39.48H56.81v4.15H52V70.26Z" transform="translate(-11.49 -12.64)"/><path class="cls-2" d="M59.78,70.26V39.48h5.55V70.26Z" transform="translate(-11.49 -12.64)"/><path class="cls-2" d="M70.08,70.26V39.48H75.7V66.39h7.45v3.87Z" transform="translate(-11.49 -12.64)"/><path class="cls-2" d="M85.92,70.26V39.48H98.84v4H91.55v8.85h5.73V56.2H91.55V66.39h7.37v3.87Z" transform="translate(-11.49 -12.64)"/><path class="cls-2" d="M118.92,70.64a9.13,9.13,0,0,1-5.3-1.33,6.86,6.86,0,0,1-2.68-3.62,16.82,16.82,0,0,1-.76-5.3v-11a17.54,17.54,0,0,1,.76-5.47,6.52,6.52,0,0,1,2.68-3.57,9.55,9.55,0,0,1,5.3-1.26,9.72,9.72,0,0,1,5,1.09,5.92,5.92,0,0,1,2.57,3.1,13.33,13.33,0,0,1,.76,4.67v2.58h-5.4V47.88a18.79,18.79,0,0,0-.13-2.35,2.92,2.92,0,0,0-.72-1.69,2.72,2.72,0,0,0-2-.63,2.92,2.92,0,0,0-2.11.66,3.27,3.27,0,0,0-.85,1.79,14.9,14.9,0,0,0-.19,2.53V61.56a11.67,11.67,0,0,0,.27,2.76A2.79,2.79,0,0,0,117,66a3,3,0,0,0,1.91.55,2.57,2.57,0,0,0,2-.66,3.29,3.29,0,0,0,.74-1.77,18.4,18.4,0,0,0,.15-2.47V58.83h5.4V61.3a14.93,14.93,0,0,1-.72,4.84A6.37,6.37,0,0,1,124,69.45,9.12,9.12,0,0,1,118.92,70.64Z" transform="translate(-11.49 -12.64)"/><path class="cls-2" d="M131.15,70.23V39.45h5.63v26.9h7.44v3.88Z" transform="translate(-11.49 -12.64)"/><path class="cls-2" d="M145.59,70.23l6.16-30.78h6l6.16,30.78H158.7l-1.21-7.11h-5.36l-1.26,7.11Zm7.11-10.68h4.18l-2.09-12.92Z" transform="translate(-11.49 -12.64)"/><path class="cls-2" d="M174.59,70.64A9.13,9.13,0,0,1,170,69.56a6.81,6.81,0,0,1-2.81-3.17,13.54,13.54,0,0,1-1.07-5.13l4.83-.95a14.85,14.85,0,0,0,.44,3.15,4.45,4.45,0,0,0,1.1,2.11,2.61,2.61,0,0,0,2,.74,2.19,2.19,0,0,0,1.93-.81,3.56,3.56,0,0,0,.57-2.07,5.58,5.58,0,0,0-.91-3.31,14.39,14.39,0,0,0-2.43-2.58l-3.88-3.42a11.8,11.8,0,0,1-2.6-3.14,8.59,8.59,0,0,1-1-4.27,7.3,7.3,0,0,1,2.13-5.63,8.2,8.2,0,0,1,5.81-2,8.65,8.65,0,0,1,3.61.67,5.7,5.7,0,0,1,2.3,1.84,8.41,8.41,0,0,1,1.28,2.68,16.76,16.76,0,0,1,.53,3.18L177,48.3a16.82,16.82,0,0,0-.32-2.58,3.64,3.64,0,0,0-.88-1.79,2.45,2.45,0,0,0-1.84-.64,2.33,2.33,0,0,0-1.92.81,3.14,3.14,0,0,0-.66,2A4.67,4.67,0,0,0,172,48.7a10.08,10.08,0,0,0,1.86,2.07l3.84,3.38A16,16,0,0,1,181,57.9a9.54,9.54,0,0,1,1.35,5.18,7.78,7.78,0,0,1-1,3.92,7,7,0,0,1-2.7,2.68A8.18,8.18,0,0,1,174.59,70.64Z" transform="translate(-11.49 -12.64)"/><path class="cls-2" d="M193.05,70.64a9.09,9.09,0,0,1-4.63-1.08,6.81,6.81,0,0,1-2.81-3.17,13.54,13.54,0,0,1-1.07-5.13l4.83-.95a14.89,14.89,0,0,0,.43,3.15,4.46,4.46,0,0,0,1.11,2.11,2.6,2.6,0,0,0,2,.74,2.2,2.2,0,0,0,1.94-.81,3.56,3.56,0,0,0,.57-2.07,5.58,5.58,0,0,0-.91-3.31A14.39,14.39,0,0,0,192,57.54l-3.88-3.42a11.61,11.61,0,0,1-2.6-3.14,8.59,8.59,0,0,1-1-4.27,7.3,7.3,0,0,1,2.13-5.63,8.19,8.19,0,0,1,5.81-2,8.65,8.65,0,0,1,3.61.67,5.77,5.77,0,0,1,2.3,1.84,8.39,8.39,0,0,1,1.27,2.68,16,16,0,0,1,.54,3.18l-4.79.83a15.6,15.6,0,0,0-.33-2.58,3.55,3.55,0,0,0-.87-1.79,2.45,2.45,0,0,0-1.84-.64,2.33,2.33,0,0,0-1.92.81,3.09,3.09,0,0,0-.67,2,4.68,4.68,0,0,0,.65,2.56,10.08,10.08,0,0,0,1.86,2.07l3.84,3.38a16,16,0,0,1,3.25,3.75,9.54,9.54,0,0,1,1.35,5.18,7.88,7.88,0,0,1-1,3.92,7,7,0,0,1-2.7,2.68A8.2,8.2,0,0,1,193.05,70.64Z" transform="translate(-11.49 -12.64)"/><path class="cls-2" d="M203.92,70.23V39.45h5.55V70.23Z" transform="translate(-11.49 -12.64)"/><path class="cls-2" d="M222.5,70.64a9.17,9.17,0,0,1-5.3-1.33,6.91,6.91,0,0,1-2.68-3.62,17.11,17.11,0,0,1-.76-5.3v-11a17.84,17.84,0,0,1,.76-5.47,6.57,6.57,0,0,1,2.68-3.57,9.6,9.6,0,0,1,5.3-1.26,9.74,9.74,0,0,1,5,1.09,5.9,5.9,0,0,1,2.56,3.1,13.11,13.11,0,0,1,.76,4.67v2.58h-5.39V47.88a18.68,18.68,0,0,0-.14-2.35,2.8,2.8,0,0,0-.72-1.69,2.7,2.7,0,0,0-2-.63,2.9,2.9,0,0,0-2.11.66,3.2,3.2,0,0,0-.85,1.79,14.9,14.9,0,0,0-.19,2.53V61.56a11.74,11.74,0,0,0,.26,2.76,2.84,2.84,0,0,0,1,1.63,3,3,0,0,0,1.92.55,2.55,2.55,0,0,0,2-.66,3.3,3.3,0,0,0,.75-1.77,18.4,18.4,0,0,0,.15-2.47V58.83h5.39V61.3a14.93,14.93,0,0,1-.72,4.84,6.27,6.27,0,0,1-2.53,3.31A9.1,9.1,0,0,1,222.5,70.64Z" transform="translate(-11.49 -12.64)"/><path class="cls-2" d="M242.49,70.64a9.13,9.13,0,0,1-4.64-1.08A6.81,6.81,0,0,1,235,66.39,13.55,13.55,0,0,1,234,61.26l4.82-.95a14.85,14.85,0,0,0,.44,3.15,4.54,4.54,0,0,0,1.1,2.11,2.64,2.64,0,0,0,2,.74,2.21,2.21,0,0,0,1.94-.81,3.56,3.56,0,0,0,.57-2.07,5.65,5.65,0,0,0-.91-3.31,14.12,14.12,0,0,0-2.44-2.58l-3.87-3.42A11.61,11.61,0,0,1,235,51a8.59,8.59,0,0,1-1-4.27,7.29,7.29,0,0,1,2.12-5.63,8.21,8.21,0,0,1,5.82-2,8.71,8.71,0,0,1,3.61.67,5.77,5.77,0,0,1,2.3,1.84,8.39,8.39,0,0,1,1.27,2.68,15.31,15.31,0,0,1,.53,3.18l-4.79.83a15.66,15.66,0,0,0-.32-2.58,3.63,3.63,0,0,0-.87-1.79,2.48,2.48,0,0,0-1.85-.64,2.36,2.36,0,0,0-1.92.81,3.14,3.14,0,0,0-.66,2,4.59,4.59,0,0,0,.65,2.56,10.08,10.08,0,0,0,1.86,2.07l3.84,3.38a16.22,16.22,0,0,1,3.24,3.75,9.54,9.54,0,0,1,1.35,5.18,7.88,7.88,0,0,1-1,3.92,7,7,0,0,1-2.7,2.68A8.25,8.25,0,0,1,242.49,70.64Z" transform="translate(-11.49 -12.64)"/><polyline class="cls-3" points="238.71 12 261.39 12 261.39 34.68"/><polyline class="cls-3" points="248.71 2 271.39 2 271.39 24.68"/><g class="cls-4"><rect class="cls-5" x="2" y="2" width="269.29" height="82.2"/></g></g></g></svg>