<svg xmlns="http://www.w3.org/2000/svg" viewBox="0 0 272.5 94.71"><defs><style>.cls-1{fill:none;stroke:#fff;stroke-miterlimit:10;stroke-width:3px;}.cls-2{font-size:9.74px;font-family:KozGoPr6N-Regular-83pv-RKSJ-H, Kozuka Gothic Pr6N;letter-spacing:-0.03em;}.cls-2,.cls-7{fill:#fff;}.cls-3{letter-spacing:-0.01em;}.cls-4{letter-spacing:0em;}.cls-5{letter-spacing:-0.07em;}.cls-6{letter-spacing:-0.06em;}</style></defs><title>logo</title><g id="Layer_2" data-name="Layer 2"><g id="Layer_1-2" data-name="Layer 1"><rect class="cls-1" x="1.5" y="1.5" width="269.5" height="91.71"/><text class="cls-2" transform="translate(183.94 77.32)">オ<tspan class="cls-3" x="9.45" y="0">バー</tspan><tspan class="cls-4" x="28.73" y="0">ル</tspan><tspan class="cls-5" x="38.47" y="0">か</tspan><tspan class="cls-6" x="47.52" y="0">ら</tspan></text><path class="cls-7" d="M36.78,62.75V36.11h-4.9V32H47.23v4.14H42.41V62.75Z"/><path class="cls-7" d="M50.2,62.75V32h5.54V62.75Z"/><path class="cls-7" d="M60.49,62.75V32h5.63v26.9h7.44v3.88Z"/><path class="cls-7" d="M76.34,62.75V32H89.26v4H82v8.85H87.7v3.92H82V58.87h7.37v3.88Z"/><path class="cls-7" d="M109.33,63.13A9.25,9.25,0,0,1,104,61.8a7,7,0,0,1-2.68-3.63,17.07,17.07,0,0,1-.76-5.3v-11a17.84,17.84,0,0,1,.76-5.47A6.6,6.6,0,0,1,104,32.84a9.6,9.6,0,0,1,5.3-1.25,9.74,9.74,0,0,1,5,1.08,6,6,0,0,1,2.57,3.1,13.34,13.34,0,0,1,.75,4.67V43h-5.39V40.36a20.92,20.92,0,0,0-.13-2.35,2.89,2.89,0,0,0-.73-1.69,2.7,2.7,0,0,0-2-.63,2.87,2.87,0,0,0-2.11.67,3.14,3.14,0,0,0-.85,1.78,14.9,14.9,0,0,0-.19,2.53V54a12.3,12.3,0,0,0,.26,2.76,2.84,2.84,0,0,0,1,1.63,3,3,0,0,0,1.92.55,2.59,2.59,0,0,0,2-.66,3.26,3.26,0,0,0,.74-1.77,18.4,18.4,0,0,0,.15-2.47V51.31h5.39v2.47a14.93,14.93,0,0,1-.72,4.84,6.3,6.3,0,0,1-2.52,3.31A9.15,9.15,0,0,1,109.33,63.13Z"/><path class="cls-7" d="M121.57,62.71V31.93h5.62v26.9h7.45v3.88Z"/><path class="cls-7" d="M136,62.71l6.15-30.78h6l6.15,30.78h-5.2L147.9,55.6h-5.36l-1.25,7.11ZM143.11,52h4.18L145.2,39.11Z"/><path class="cls-7" d="M165,63.13A9,9,0,0,1,160.37,62a6.83,6.83,0,0,1-2.82-3.17,13.74,13.74,0,0,1-1.06-5.13l4.83-1a14.89,14.89,0,0,0,.43,3.15,4.54,4.54,0,0,0,1.1,2.11,2.64,2.64,0,0,0,2,.74,2.21,2.21,0,0,0,1.94-.81,3.56,3.56,0,0,0,.57-2.07,5.58,5.58,0,0,0-.91-3.31A14.39,14.39,0,0,0,164,50L160.1,46.6a11.61,11.61,0,0,1-2.6-3.14,8.59,8.59,0,0,1-1-4.27,7.3,7.3,0,0,1,2.13-5.63,8.21,8.21,0,0,1,5.81-2,8.69,8.69,0,0,1,3.61.66,5.77,5.77,0,0,1,2.3,1.84,8.39,8.39,0,0,1,1.27,2.68,15.31,15.31,0,0,1,.53,3.18l-4.78.83a15.6,15.6,0,0,0-.33-2.58,3.55,3.55,0,0,0-.87-1.79,2.45,2.45,0,0,0-1.84-.64,2.33,2.33,0,0,0-1.92.81,3.11,3.11,0,0,0-.67,2,4.65,4.65,0,0,0,.65,2.56,10.08,10.08,0,0,0,1.86,2.07l3.84,3.38a16.26,16.26,0,0,1,3.25,3.75,9.54,9.54,0,0,1,1.35,5.18,7.88,7.88,0,0,1-1,3.92,7,7,0,0,1-2.7,2.68A8.2,8.2,0,0,1,165,63.13Z"/><path class="cls-7" d="M183.47,63.13A9,9,0,0,1,178.83,62,6.81,6.81,0,0,1,176,58.87,13.55,13.55,0,0,1,175,53.74l4.82-1a14.85,14.85,0,0,0,.44,3.15,4.54,4.54,0,0,0,1.1,2.11,2.64,2.64,0,0,0,2,.74,2.21,2.21,0,0,0,1.94-.81,3.56,3.56,0,0,0,.57-2.07,5.65,5.65,0,0,0-.91-3.31A14.12,14.12,0,0,0,182.44,50l-3.87-3.42a11.61,11.61,0,0,1-2.6-3.14,8.59,8.59,0,0,1-1-4.27,7.33,7.33,0,0,1,2.12-5.63,8.25,8.25,0,0,1,5.82-2,8.72,8.72,0,0,1,3.61.66,5.77,5.77,0,0,1,2.3,1.84,8.39,8.39,0,0,1,1.27,2.68,15.31,15.31,0,0,1,.53,3.18l-4.79.83a15.66,15.66,0,0,0-.32-2.58,3.63,3.63,0,0,0-.87-1.79,2.48,2.48,0,0,0-1.85-.64,2.36,2.36,0,0,0-1.92.81,3.16,3.16,0,0,0-.66,2,4.65,4.65,0,0,0,.65,2.56,10.08,10.08,0,0,0,1.86,2.07l3.84,3.38a16,16,0,0,1,3.24,3.75,9.54,9.54,0,0,1,1.35,5.18,7.88,7.88,0,0,1-1,3.92,7,7,0,0,1-2.7,2.68A8.23,8.23,0,0,1,183.47,63.13Z"/><path class="cls-7" d="M194.34,62.71V31.93h5.55V62.71Z"/><path class="cls-7" d="M212.92,63.13a9.23,9.23,0,0,1-5.3-1.33,7,7,0,0,1-2.68-3.63,16.78,16.78,0,0,1-.76-5.3v-11a17.54,17.54,0,0,1,.76-5.47,6.6,6.6,0,0,1,2.68-3.57,9.58,9.58,0,0,1,5.3-1.25,9.77,9.77,0,0,1,5,1.08,6,6,0,0,1,2.56,3.1,13.11,13.11,0,0,1,.76,4.67V43h-5.39V40.36a18.68,18.68,0,0,0-.14-2.35,3,3,0,0,0-.72-1.69,2.7,2.7,0,0,0-2-.63,2.84,2.84,0,0,0-2.11.67,3.15,3.15,0,0,0-.86,1.78,16,16,0,0,0-.19,2.53V54a11.67,11.67,0,0,0,.27,2.76,2.84,2.84,0,0,0,1,1.63A3,3,0,0,0,213,59a2.56,2.56,0,0,0,2-.66,3.26,3.26,0,0,0,.74-1.77,18.3,18.3,0,0,0,.16-2.47V51.31h5.39v2.47a14.93,14.93,0,0,1-.72,4.84A6.32,6.32,0,0,1,218,61.93,9.09,9.09,0,0,1,212.92,63.13Z"/><path class="cls-7" d="M232.91,63.13A9,9,0,0,1,228.27,62a6.81,6.81,0,0,1-2.81-3.17,13.54,13.54,0,0,1-1.07-5.13l4.83-1a14.85,14.85,0,0,0,.44,3.15,4.54,4.54,0,0,0,1.1,2.11,2.62,2.62,0,0,0,2,.74,2.19,2.19,0,0,0,1.93-.81,3.56,3.56,0,0,0,.57-2.07,5.58,5.58,0,0,0-.91-3.31A14.39,14.39,0,0,0,231.88,50L228,46.6a11.8,11.8,0,0,1-2.6-3.14,8.7,8.7,0,0,1-1-4.27,7.3,7.3,0,0,1,2.13-5.63,8.24,8.24,0,0,1,5.81-2,8.66,8.66,0,0,1,3.61.66,5.7,5.7,0,0,1,2.3,1.84,8.41,8.41,0,0,1,1.28,2.68,16.76,16.76,0,0,1,.53,3.18l-4.79.83A16.82,16.82,0,0,0,235,38.2a3.64,3.64,0,0,0-.88-1.79,2.44,2.44,0,0,0-1.84-.64,2.33,2.33,0,0,0-1.92.81,3.16,3.16,0,0,0-.66,2,4.65,4.65,0,0,0,.64,2.56,10.08,10.08,0,0,0,1.86,2.07L236,46.63a16,16,0,0,1,3.25,3.75,9.54,9.54,0,0,1,1.35,5.18,7.78,7.78,0,0,1-1,3.92,6.89,6.89,0,0,1-2.7,2.68A8.19,8.19,0,0,1,232.91,63.13Z"/></g></g></svg>