<svg xmlns="http://www.w3.org/2000/svg" xmlns:xlink="http://www.w3.org/1999/xlink" viewBox="0 0 273.39 86.2"><defs><style>.cls-1,.cls-3{fill:none;}.cls-2{fill:#fff;}.cls-3{stroke:#fff;stroke-miterlimit:10;stroke-width:4px;}.cls-4{clip-path:url(#clip-path);}</style><clipPath id="clip-path" transform="translate(-11.49 -16.15)"><polygon class="cls-1" points="0 115 238.41 115 238.41 59.26 291.67 59.26 291.67 0 0 0 0 115"/></clipPath></defs><title>Asset 3</title><g id="Layer_2" data-name="Layer 2"><g id="Layer_1-2" data-name="Layer 1"><path class="cls-2" d="M46.36,72.89V46.25h-4.9V42.11H56.81v4.14H52V72.89Z" transform="translate(-11.49 -16.15)"/><path class="cls-2" d="M59.78,72.89V42.11h5.55V72.89Z" transform="translate(-11.49 -16.15)"/><path class="cls-2" d="M70.08,72.89V42.11H75.7V69h7.45v3.88Z" transform="translate(-11.49 -16.15)"/><path class="cls-2" d="M85.92,72.89V42.11H98.84v4H91.55v8.86h5.73v3.91H91.55V69h7.37v3.88Z" transform="translate(-11.49 -16.15)"/><path class="cls-2" d="M118.92,73.27a9.13,9.13,0,0,1-5.3-1.33,6.92,6.92,0,0,1-2.68-3.63,16.78,16.78,0,0,1-.76-5.3V52a17.5,17.5,0,0,1,.76-5.47A6.54,6.54,0,0,1,113.62,43a12,12,0,0,1,10.29-.17,6,6,0,0,1,2.57,3.1,13.33,13.33,0,0,1,.76,4.67v2.59h-5.4V50.51a19,19,0,0,0-.13-2.36,3,3,0,0,0-.72-1.69,2.72,2.72,0,0,0-2-.63,2.92,2.92,0,0,0-2.11.67,3.24,3.24,0,0,0-.85,1.79,14.78,14.78,0,0,0-.19,2.52V64.19a11.64,11.64,0,0,0,.27,2.75,2.81,2.81,0,0,0,1,1.64,3,3,0,0,0,1.91.55,2.54,2.54,0,0,0,2-.67,3.26,3.26,0,0,0,.74-1.76,18.51,18.51,0,0,0,.15-2.47V61.45h5.4v2.47a15,15,0,0,1-.72,4.85,6.38,6.38,0,0,1-2.53,3.3A9.12,9.12,0,0,1,118.92,73.27Z" transform="translate(-11.49 -16.15)"/><path class="cls-2" d="M131.15,72.85V42.07h5.63V69h7.44v3.87Z" transform="translate(-11.49 -16.15)"/><path class="cls-2" d="M145.59,72.85l6.16-30.78h6l6.16,30.78H158.7l-1.21-7.1h-5.36l-1.26,7.1Zm7.11-10.68h4.18l-2.09-12.92Z" transform="translate(-11.49 -16.15)"/><path class="cls-2" d="M174.59,73.27A9.13,9.13,0,0,1,170,72.19,6.78,6.78,0,0,1,167.14,69a13.54,13.54,0,0,1-1.07-5.13l4.83-1a14.86,14.86,0,0,0,.44,3.16,4.55,4.55,0,0,0,1.1,2.11,2.65,2.65,0,0,0,2,.74,2.17,2.17,0,0,0,1.93-.82,3.51,3.51,0,0,0,.57-2.07,5.62,5.62,0,0,0-.91-3.31,14.39,14.39,0,0,0-2.43-2.58l-3.88-3.42a11.65,11.65,0,0,1-2.6-3.14,8.56,8.56,0,0,1-1-4.27,7.27,7.27,0,0,1,2.13-5.62,8.2,8.2,0,0,1,5.81-2,8.49,8.49,0,0,1,3.61.67,5.62,5.62,0,0,1,2.3,1.84,8.31,8.31,0,0,1,1.28,2.68,16.79,16.79,0,0,1,.53,3.17l-4.79.84a16.8,16.8,0,0,0-.32-2.59,3.6,3.6,0,0,0-.88-1.78,2.46,2.46,0,0,0-1.84-.65,2.31,2.31,0,0,0-1.92.82,3.12,3.12,0,0,0-.66,2,4.71,4.71,0,0,0,.64,2.57,10.08,10.08,0,0,0,1.86,2.07l3.84,3.38A15.78,15.78,0,0,1,181,60.52a9.55,9.55,0,0,1,1.35,5.19,7.74,7.74,0,0,1-1,3.91,7,7,0,0,1-2.7,2.68A8.08,8.08,0,0,1,174.59,73.27Z" transform="translate(-11.49 -16.15)"/><path class="cls-2" d="M193.05,73.27a9.09,9.09,0,0,1-4.63-1.08A6.78,6.78,0,0,1,185.61,69a13.54,13.54,0,0,1-1.07-5.13l4.83-1a14.9,14.9,0,0,0,.43,3.16,4.55,4.55,0,0,0,1.11,2.11,2.64,2.64,0,0,0,2,.74,2.18,2.18,0,0,0,1.94-.82,3.51,3.51,0,0,0,.57-2.07,5.62,5.62,0,0,0-.91-3.31A14.39,14.39,0,0,0,192,60.16l-3.88-3.42a11.46,11.46,0,0,1-2.6-3.14,8.56,8.56,0,0,1-1-4.27,7.27,7.27,0,0,1,2.13-5.62,8.19,8.19,0,0,1,5.81-2,8.49,8.49,0,0,1,3.61.67,5.69,5.69,0,0,1,2.3,1.84,8.29,8.29,0,0,1,1.27,2.68,16,16,0,0,1,.54,3.17l-4.79.84a15.59,15.59,0,0,0-.33-2.59,3.51,3.51,0,0,0-.87-1.78,2.46,2.46,0,0,0-1.84-.65,2.31,2.31,0,0,0-1.92.82,3.07,3.07,0,0,0-.67,2,4.71,4.71,0,0,0,.65,2.57,10.08,10.08,0,0,0,1.86,2.07l3.84,3.38a15.78,15.78,0,0,1,3.25,3.74,9.55,9.55,0,0,1,1.35,5.19,7.85,7.85,0,0,1-1,3.91,7,7,0,0,1-2.7,2.68A8.09,8.09,0,0,1,193.05,73.27Z" transform="translate(-11.49 -16.15)"/><path class="cls-2" d="M203.92,72.85V42.07h5.55V72.85Z" transform="translate(-11.49 -16.15)"/><path class="cls-2" d="M222.5,73.27a9.17,9.17,0,0,1-5.3-1.33,7,7,0,0,1-2.68-3.63,17.07,17.07,0,0,1-.76-5.3V52a17.79,17.79,0,0,1,.76-5.47A6.59,6.59,0,0,1,217.2,43a12,12,0,0,1,10.3-.17,6,6,0,0,1,2.56,3.1,13.11,13.11,0,0,1,.76,4.67v2.59h-5.39V50.51a18.85,18.85,0,0,0-.14-2.36,2.82,2.82,0,0,0-.72-1.69,2.7,2.7,0,0,0-2-.63,2.9,2.9,0,0,0-2.11.67,3.17,3.17,0,0,0-.85,1.79,14.78,14.78,0,0,0-.19,2.52V64.19a11.7,11.7,0,0,0,.26,2.75,2.87,2.87,0,0,0,1,1.64,3.09,3.09,0,0,0,1.92.55,2.51,2.51,0,0,0,2-.67,3.27,3.27,0,0,0,.75-1.76,18.51,18.51,0,0,0,.15-2.47V61.45h5.39v2.47a15,15,0,0,1-.72,4.85,6.28,6.28,0,0,1-2.53,3.3A9.09,9.09,0,0,1,222.5,73.27Z" transform="translate(-11.49 -16.15)"/><path class="cls-2" d="M242.49,73.27a9.13,9.13,0,0,1-4.64-1.08A6.78,6.78,0,0,1,235,69,13.55,13.55,0,0,1,234,63.88l4.82-1a14.86,14.86,0,0,0,.44,3.16,4.64,4.64,0,0,0,1.1,2.11,2.68,2.68,0,0,0,2,.74,2.19,2.19,0,0,0,1.94-.82,3.51,3.51,0,0,0,.57-2.07,5.7,5.7,0,0,0-.91-3.31,14.12,14.12,0,0,0-2.44-2.58l-3.87-3.42A11.46,11.46,0,0,1,235,53.6a8.56,8.56,0,0,1-1-4.27,7.27,7.27,0,0,1,2.12-5.62,8.21,8.21,0,0,1,5.82-2,8.56,8.56,0,0,1,3.61.67,5.69,5.69,0,0,1,2.3,1.84,8.29,8.29,0,0,1,1.27,2.68,15.32,15.32,0,0,1,.53,3.17l-4.79.84a15.65,15.65,0,0,0-.32-2.59,3.59,3.59,0,0,0-.87-1.78,2.48,2.48,0,0,0-1.85-.65,2.34,2.34,0,0,0-1.92.82,3.12,3.12,0,0,0-.66,2,4.63,4.63,0,0,0,.65,2.57,10.08,10.08,0,0,0,1.86,2.07l3.84,3.38a16,16,0,0,1,3.24,3.74,9.55,9.55,0,0,1,1.35,5.19,7.84,7.84,0,0,1-1,3.91,7,7,0,0,1-2.7,2.68A8.15,8.15,0,0,1,242.49,73.27Z" transform="translate(-11.49 -16.15)"/><polyline class="cls-3" points="238.71 74.2 261.39 74.2 261.39 51.53"/><polyline class="cls-3" points="248.71 84.2 271.39 84.2 271.39 61.53"/><g class="cls-4"><rect class="cls-3" x="2" y="2" width="269.29" height="82.2"/></g></g></g></svg>